<?xml version="1.0" encoding="UTF-8" standalone="no"?>
<svg
   fill="#999999"
   viewBox="0 0 88 88"
   version="1.1"
   id="svg6"
   sodipodiDocname="add.svg"
   width="88"
   height="88"
   inkscapeVersion="1.2.2 (b0a8486541, 2022-12-01)"
   xmlnsInkscape="http://www.inkscape.org/namespaces/inkscape"
   xmlnsSodipodi="http://sodipodi.sourceforge.net/DTD/sodipodi-0.dtd"
   xmlns="http://www.w3.org/2000/svg"
   xmlnsSvg="http://www.w3.org/2000/svg">
  <defs
     id="defs10" />
  <sodipodiNamedview
     id="namedview8"
     pagecolor="#505050"
     bordercolor="#eeeeee"
     borderopacity="1"
     inkscapeShowpageshadow="0"
     inkscapePageopacity="0"
     inkscapePagecheckerboard="0"
     inkscapeDeskcolor="#505050"
     showgrid="false"
     inkscapeZoom="4.2554346"
     inkscapeCx="27.024267"
     inkscapeCy="64.153259"
     inkscapeWindow-width="1416"
     inkscapeWindow-height="845"
     inkscapeWindow-x="9"
     inkscapeWindow-y="40"
     inkscapeWindow-maximized="1"
     inkscapeCurrent-layer="svg6" />
  <path
     d="M 76,0 H 12 C 5.37,0 0,5.37 0,12 v 64 c 0,6.63 5.37,12 12,12 h 64 c 6.63,0 12,-5.37 12,-12 V 12 C 88,5.37 82.63,0 76,0 Z m 4,76 c 0,2.21 -1.79,4 -4,4 H 12 C 9.79,80 8,78.21 8,76 V 12 C 8,9.79 9.79,8 12,8 h 64 c 2.21,0 4,1.79 4,4 z"
     id="path2"
     style="fill:#000000;fill-opacity:1" />
  <path
     d="M 60,40 H 48 V 28 a 4,4 0 0 0 -8,0 V 40 H 28 a 4,4 0 0 0 0,8 h 12 v 12 a 4,4 0 0 0 8,0 V 48 h 12 a 4,4 0 0 0 0,-8 z"
     id="path4"
     style="fill:#000000;fill-opacity:1" />
</svg>
