<?xml version="1.0" encoding="UTF-8" standalone="no"?>
<svg
   xmlSpace="preserve"
   width="1000"
   height="1000"
   version="1.1"
   id="svg174"
   sodipodiDocname="Apple_logo_black.svg"
   inkscapeVersion="1.2.2 (b0a8486541, 2022-12-01)"
   xmlnsInkscape="http://www.inkscape.org/namespaces/inkscape"
   xmlnsSodipodi="http://sodipodi.sourceforge.net/DTD/sodipodi-0.dtd"
   xmlns="http://www.w3.org/2000/svg"
   xmlnsSvg="http://www.w3.org/2000/svg"><defs
   id="defs178" /><sodipodiNamedview
   id="namedview176"
   pagecolor="#505050"
   bordercolor="#eeeeee"
   borderopacity="1"
   inkscapeShowpageshadow="0"
   inkscapePageopacity="0"
   inkscapePagecheckerboard="0"
   inkscapeDeskcolor="#505050"
   showgrid="false"
   inkscapeZoom="0.28992629"
   inkscapeCx="382.85593"
   inkscapeCy="500.12712"
   inkscapeWindow-width="1416"
   inkscapeWindow-height="845"
   inkscapeWindow-x="9"
   inkscapeWindow-y="40"
   inkscapeWindow-maximized="1"
   inkscapeCurrent-layer="svg174" />
  <path
   d="m 881.05,340.93409 c -5.8,4.50045 -108.2,62.20622 -108.2,190.51906 0,148.41484 130.3,200.92009 134.2,202.22022 -0.6,3.20032 -20.7,71.90719 -68.7,141.91419 -42.8,61.60616 -87.5,123.11231 -155.5,123.11231 -68,0 -85.5,-39.50395 -164,-39.50395 -76.5,0 -103.7,40.80408 -165.9,40.80408 -62.2,0 -105.6,-57.0057 -155.5,-127.0127 -57.8,-82.20822 -104.5,-209.92099 -104.5,-331.13311 0,-194.41945 126.4,-297.52976 250.8,-297.52976 66.1,0 121.2,43.40434 162.7,43.40434 39.5,0 101.1,-46.0046 176.3,-46.0046 28.5,0 130.9,2.60026 198.3,99.20992 z m -234,-181.51815 c 31.1,-36.90369 53.1,-88.108809 53.1,-139.31393 0,-7.10071 -0.6,-14.3014299 -1.9,-20.10201 -50.6,1.90019 -110.8,33.70337 -147.1,75.807581 -28.5,32.403239 -55.1,83.608359 -55.1,135.513549 0,7.80078 1.3,15.60156 1.9,18.10181 3.2,0.60006 8.4,1.30013 13.6,1.30013 45.4,0 102.5,-30.40304 135.5,-71.30713 z"
   id="path172"
   style="fill:#fff;stroke-width:1.00005" />
</svg>
